<svg xmlns="http://www.w3.org/2000/svg" viewBox="0 0 100 100">
  <rect width="100" height="100" fill="white"/>
  
  <g fill="black">
    <rect x="8" y="8" width="32" height="32"/>
    <rect x="12" y="12" width="24" height="24" fill="white"/>
    <rect x="16" y="16" width="16" height="16"/>
    
    <rect x="60" y="8" width="32" height="32"/>
    <rect x="64" y="12" width="24" height="24" fill="white"/>
    <rect x="68" y="16" width="16" height="16"/>
    
    <rect x="8" y="60" width="32" height="32"/>
    <rect x="12" y="64" width="24" height="24" fill="white"/>
    <rect x="16" y="68" width="16" height="16"/>
    
    <rect x="44" y="8" width="4" height="4"/>
    <rect x="52" y="8" width="4" height="4"/>
    
    <rect x="44" y="16" width="4" height="4"/>
    <rect x="48" y="16" width="4" height="4"/>
    
    <rect x="44" y="24" width="4" height="4"/>
    <rect x="52" y="24" width="4" height="4"/>
    
    <rect x="44" y="32" width="4" height="4"/>
    <rect x="48" y="32" width="4" height="4"/>
    <rect x="52" y="32" width="4" height="4"/>
    
    <rect x="8" y="44" width="4" height="4"/>
    <rect x="16" y="44" width="4" height="4"/>
    <rect x="24" y="44" width="4" height="4"/>
    <rect x="32" y="44" width="4" height="4"/>
    <rect x="36" y="44" width="4" height="4"/>
    
    <rect x="12" y="48" width="4" height="4"/>
    <rect x="20" y="48" width="4" height="4"/>
    <rect x="28" y="48" width="4" height="4"/>
    <rect x="36" y="48" width="4" height="4"/>
    
    <rect x="8" y="52" width="4" height="4"/>
    <rect x="16" y="52" width="4" height="4"/>
    <rect x="24" y="52" width="4" height="4"/>
    <rect x="32" y="52" width="4" height="4"/>
    <rect x="36" y="52" width="4" height="4"/>
    
    <rect x="44" y="44" width="4" height="4"/>
    <rect x="48" y="44" width="4" height="4"/>
    <rect x="56" y="44" width="4" height="4"/>
    
    <rect x="44" y="48" width="4" height="4"/>
    <rect x="52" y="48" width="4" height="4"/>
    <rect x="56" y="48" width="4" height="4"/>
    
    <rect x="44" y="52" width="4" height="4"/>
    <rect x="48" y="52" width="4" height="4"/>
    <rect x="52" y="52" width="4" height="4"/>
    
    <rect x="44" y="60" width="4" height="4"/>
    <rect x="52" y="60" width="4" height="4"/>
    
    <rect x="48" y="64" width="4" height="4"/>
    <rect x="56" y="64" width="4" height="4"/>
    
    <rect x="44" y="68" width="4" height="4"/>
    <rect x="48" y="68" width="4" height="4"/>
    <rect x="52" y="68" width="4" height="4"/>
    
    <rect x="44" y="72" width="4" height="4"/>
    <rect x="56" y="72" width="4" height="4"/>
    
    <rect x="44" y="76" width="4" height="4"/>
    <rect x="48" y="76" width="4" height="4"/>
    <rect x="52" y="76" width="4" height="4"/>
    <rect x="56" y="76" width="4" height="4"/>
    
    <rect x="44" y="80" width="4" height="4"/>
    <rect x="52" y="80" width="4" height="4"/>
    
    <rect x="44" y="84" width="4" height="4"/>
    <rect x="48" y="84" width="4" height="4"/>
    <rect x="56" y="84" width="4" height="4"/>
    
    <rect x="44" y="88" width="4" height="4"/>
    <rect x="52" y="88" width="4" height="4"/>
    <rect x="56" y="88" width="4" height="4"/>
    
    <rect x="60" y="44" width="4" height="4"/>
    <rect x="68" y="44" width="4" height="4"/>
    <rect x="76" y="44" width="4" height="4"/>
    <rect x="84" y="44" width="4" height="4"/>
    <rect x="88" y="44" width="4" height="4"/>
    
    <rect x="64" y="48" width="4" height="4"/>
    <rect x="72" y="48" width="4" height="4"/>
    <rect x="80" y="48" width="4" height="4"/>
    <rect x="88" y="48" width="4" height="4"/>
    
    <rect x="60" y="52" width="4" height="4"/>
    <rect x="68" y="52" width="4" height="4"/>
    <rect x="76" y="52" width="4" height="4"/>
    <rect x="84" y="52" width="4" height="4"/>
    <rect x="88" y="52" width="4" height="4"/>
    
    <rect x="64" y="60" width="4" height="4"/>
    <rect x="72" y="60" width="4" height="4"/>
    <rect x="80" y="60" width="4" height="4"/>
    <rect x="88" y="60" width="4" height="4"/>
    
    <rect x="60" y="64" width="4" height="4"/>
    <rect x="68" y="64" width="4" height="4"/>
    <rect x="84" y="64" width="4" height="4"/>
    
    <rect x="60" y="68" width="4" height="4"/>
    <rect x="72" y="68" width="4" height="4"/>
    <rect x="80" y="68" width="4" height="4"/>
    <rect x="88" y="68" width="4" height="4"/>
    
    <rect x="64" y="72" width="4" height="4"/>
    <rect x="68" y="72" width="4" height="4"/>
    <rect x="76" y="72" width="4" height="4"/>
    <rect x="84" y="72" width="4" height="4"/>
    
    <rect x="60" y="76" width="4" height="4"/>
    <rect x="72" y="76" width="4" height="4"/>
    <rect x="80" y="76" width="4" height="4"/>
    
    <rect x="64" y="80" width="4" height="4"/>
    <rect x="68" y="80" width="4" height="4"/>
    <rect x="76" y="80" width="4" height="4"/>
    <rect x="88" y="80" width="4" height="4"/>
    
    <rect x="60" y="84" width="4" height="4"/>
    <rect x="68" y="84" width="4" height="4"/>
    <rect x="72" y="84" width="4" height="4"/>
    <rect x="80" y="84" width="4" height="4"/>
    <rect x="84" y="84" width="4" height="4"/>
    
    <rect x="60" y="88" width="4" height="4"/>
    <rect x="64" y="88" width="4" height="4"/>
    <rect x="76" y="88" width="4" height="4"/>
    <rect x="80" y="88" width="4" height="4"/>
    <rect x="88" y="88" width="4" height="4"/>
  </g>
</svg>
